<svg width="36" height="36" viewBox="0 0 36 36" fill="none" xmlns="http://www.w3.org/2000/svg">
<path d="M18 36C27.9411 36 36 27.9411 36 18C36 8.05887 27.9411 0 18 0C8.05887 0 0 8.05887 0 18C0 27.9411 8.05887 36 18 36Z" fill="#0F1D2A"/>
<path d="M8.23631 17.6086L25.5913 10.9171C26.3968 10.6261 27.1003 11.1136 26.8393 12.3316L26.8408 12.3301L23.8858 26.2516C23.6668 27.2386 23.0803 27.4786 22.2598 27.0136L17.7598 23.6971L15.5893 25.7881C15.3493 26.0281 15.1468 26.2306 14.6818 26.2306L15.0013 21.6511L23.3413 14.1166C23.7043 13.7971 23.2603 13.6171 22.7818 13.9351L12.4753 20.4241L8.03231 19.0381C7.06781 18.7321 7.04681 18.0736 8.23631 17.6086V17.6086Z" fill="white"/>
</svg>
