<svg width="948" height="853" viewBox="0 0 948 853" fill="none" xmlns="http://www.w3.org/2000/svg">
<path d="M468.452 16.5174C470.307 11.1166 477.945 11.1166 479.801 16.5174L584.543 321.402C585.375 323.826 587.655 325.453 590.217 325.453H928.426C934.319 325.453 936.681 333.061 931.824 336.398L658.793 524.012C656.572 525.538 655.641 528.358 656.517 530.906L760.939 834.861C762.818 840.331 756.633 845.031 751.867 841.756L477.524 653.241C475.477 651.834 472.775 651.834 470.728 653.241L196.386 841.756C191.619 845.031 185.434 840.331 187.313 834.861L291.736 530.906C292.611 528.358 291.68 525.538 289.459 524.012L16.4281 336.398C11.5713 333.061 13.9332 325.453 19.8262 325.453H358.035C360.598 325.453 362.877 323.826 363.71 321.402L468.452 16.5174Z" fill="#0F1D2A"/>
<path d="M477.418 651.131C475.362 652.556 472.638 652.556 470.582 651.131L15.7733 335.932C10.9399 332.582 13.3103 325 19.191 325L928.809 325C934.69 325 937.06 332.582 932.227 335.932L477.418 651.131Z" fill="#223543"/>
<rect x="435.126" y="480" width="30" height="6" fill="#0F1D2A"/>
<g clip-path="url(#clip0_38_35)">
<path d="M501.772 496.546C499.585 496.546 497.696 496.369 496.105 496.016C494.515 495.638 493.189 495.108 492.129 494.427C491.102 493.746 490.323 492.939 489.793 492.005C489.295 491.072 489.014 490.038 488.948 488.903H494.912C495.045 490.013 495.608 490.908 496.602 491.589C497.597 492.27 499.32 492.611 501.772 492.611C504.291 492.611 506.064 492.283 507.091 491.627C508.151 490.971 508.681 490.151 508.681 489.168C508.681 488.562 508.549 488.032 508.284 487.578C508.052 487.124 507.621 486.721 506.991 486.368C506.362 486.014 505.517 485.699 504.456 485.422C503.429 485.119 502.103 484.829 500.48 484.551C498.79 484.223 497.282 483.845 495.956 483.416C494.631 482.987 493.504 482.47 492.576 481.865C491.681 481.234 491.002 480.49 490.538 479.632C490.074 478.775 489.842 477.766 489.842 476.605C489.842 475.571 490.074 474.613 490.538 473.73C491.035 472.847 491.781 472.09 492.775 471.459C493.769 470.829 495.012 470.337 496.503 469.984C497.994 469.631 499.751 469.454 501.772 469.454C503.793 469.454 505.55 469.631 507.041 469.984C508.532 470.337 509.775 470.841 510.769 471.497C511.763 472.153 512.509 472.935 513.006 473.843C513.536 474.751 513.834 475.76 513.901 476.87H507.936C507.803 475.836 507.273 475.004 506.345 474.373C505.45 473.717 503.926 473.389 501.772 473.389C499.684 473.389 498.16 473.705 497.199 474.335C496.238 474.941 495.757 475.697 495.757 476.605C495.757 477.186 495.873 477.69 496.105 478.119C496.371 478.523 496.801 478.888 497.398 479.216C497.994 479.544 498.773 479.834 499.734 480.087C500.695 480.339 501.888 480.591 503.313 480.843C505.235 481.196 506.892 481.6 508.284 482.054C509.709 482.508 510.885 483.063 511.813 483.719C512.774 484.375 513.486 485.144 513.95 486.027C514.414 486.91 514.646 487.957 514.646 489.168C514.646 490.227 514.381 491.211 513.851 492.119C513.354 493.027 512.575 493.809 511.515 494.465C510.454 495.121 509.112 495.638 507.488 496.016C505.865 496.369 503.959 496.546 501.772 496.546ZM528.521 473.578H518.132V469.757H544.924V473.578H534.486V496.243H528.521V473.578ZM562.834 496.546C560.846 496.546 559.04 496.332 557.416 495.903C555.793 495.474 554.401 494.818 553.241 493.935C552.081 493.027 551.186 491.892 550.557 490.53C549.927 489.142 549.612 487.515 549.612 485.649V469.757H555.577V485.649C555.577 488.045 556.174 489.811 557.367 490.946C558.593 492.056 560.415 492.611 562.834 492.611C565.22 492.611 567.026 492.056 568.253 490.946C569.479 489.811 570.092 488.045 570.092 485.649V469.757H576.057V485.649C576.057 487.515 575.742 489.142 575.112 490.53C574.483 491.892 573.588 493.027 572.428 493.935C571.268 494.818 569.876 495.474 568.253 495.903C566.629 496.332 564.823 496.546 562.834 496.546ZM584.329 469.757H596.408C600.617 469.757 603.914 470.728 606.3 472.67C608.686 474.587 609.879 477.488 609.879 481.373V484.4C609.879 488.386 608.686 491.362 606.3 493.33C603.914 495.272 600.617 496.243 596.408 496.243H584.329V469.757ZM596.408 492.384C597.601 492.384 598.662 492.245 599.59 491.968C600.517 491.665 601.297 491.198 601.926 490.568C602.589 489.937 603.086 489.117 603.417 488.108C603.782 487.074 603.964 485.838 603.964 484.4V481.373C603.964 478.598 603.285 476.605 601.926 475.395C600.601 474.184 598.762 473.578 596.408 473.578H590.245V492.384H596.408ZM617.542 469.757H623.507V496.243H617.542V469.757ZM644.611 496.546C642.523 496.546 640.634 496.306 638.944 495.827C637.288 495.323 635.879 494.566 634.719 493.557C633.56 492.523 632.665 491.236 632.035 489.697C631.438 488.133 631.14 486.279 631.14 484.135V481.108C631.14 477.223 632.333 474.31 634.719 472.368C637.105 470.425 640.403 469.454 644.611 469.454C648.82 469.454 652.117 470.425 654.503 472.368C656.889 474.31 658.082 477.223 658.082 481.108V484.135C658.082 486.279 657.767 488.133 657.137 489.697C656.541 491.236 655.663 492.523 654.503 493.557C653.343 494.566 651.918 495.323 650.228 495.827C648.572 496.306 646.699 496.546 644.611 496.546ZM644.611 492.611C645.804 492.611 646.865 492.472 647.792 492.195C648.721 491.892 649.499 491.413 650.128 490.757C650.791 490.101 651.289 489.231 651.62 488.146C651.984 487.061 652.166 485.724 652.166 484.135V481.108C652.166 478.333 651.487 476.353 650.128 475.168C648.803 473.982 646.964 473.389 644.611 473.389C642.259 473.389 640.403 473.982 639.044 475.168C637.718 476.353 637.055 478.333 637.055 481.108V484.135C637.055 485.724 637.221 487.061 637.552 488.146C637.917 489.231 638.414 490.101 639.044 490.757C639.707 491.413 640.502 491.892 641.43 492.195C642.358 492.472 643.418 492.611 644.611 492.611Z" fill="#0F1D2A"/>
</g>
<g clip-path="url(#clip1_38_35)">
<path d="M291.3 469H298.5L305.243 490.48L313.186 469H320.443L328.557 490.48L335.357 469H342.271L332.729 497H324.957L316.671 475.52L308.614 497H300.843L291.3 469ZM348.038 469H373.353V473.04H354.838V480.56H371.353V484.64H354.838V492.92H373.353V497H348.038V469ZM380.907 469H395.021C399.593 469 403.078 469.667 405.478 471C407.916 472.333 409.135 474.16 409.135 476.48C409.135 477.893 408.602 479.107 407.535 480.12C406.507 481.107 405.193 481.867 403.593 482.4C405.687 482.853 407.345 483.627 408.564 484.72C409.821 485.787 410.45 487.227 410.45 489.04C410.45 490.187 410.164 491.253 409.593 492.24C409.021 493.2 408.126 494.04 406.907 494.76C405.726 495.453 404.202 496 402.335 496.4C400.507 496.8 398.335 497 395.821 497H380.907V469ZM395.535 492.92C398.469 492.92 400.545 492.56 401.764 491.84C403.021 491.093 403.65 490.067 403.65 488.76C403.65 487.427 403.021 486.387 401.764 485.64C400.545 484.893 398.469 484.52 395.535 484.52H387.707V492.92H395.535ZM395.021 480.64C397.573 480.64 399.421 480.293 400.564 479.6C401.745 478.907 402.335 478 402.335 476.88C402.335 475.707 401.764 474.773 400.621 474.08C399.478 473.387 397.611 473.04 395.021 473.04H387.707V480.64H395.021Z" fill="#0F1D2A"/>
</g>
<g clip-path="url(#clip2_38_35)">
<path d="M258.557 453.716C246.013 453.716 236.094 450.09 228.801 442.838C221.605 435.585 218.007 424.482 218.007 409.529V398.785C218.007 385.175 221.605 374.878 228.801 367.894C236.094 360.82 246.013 357.284 258.557 357.284C264.586 357.284 269.886 358 274.456 359.432C279.026 360.865 282.916 362.924 286.125 365.611C289.334 368.297 291.862 371.565 293.71 375.415C295.557 379.176 296.773 383.429 297.356 388.174H276.498C275.623 383.608 273.824 380.071 271.101 377.564C268.378 375.057 264.197 373.803 258.557 373.803C252.431 373.803 247.617 375.728 244.117 379.579C240.616 383.339 238.866 389.741 238.866 398.785V409.529C238.866 414.722 239.303 419.11 240.178 422.691C241.151 426.183 242.464 429.004 244.117 431.153C245.77 433.302 247.812 434.869 250.243 435.854C252.674 436.749 255.445 437.197 258.557 437.197C264.294 437.197 268.427 435.943 270.955 433.436C273.581 430.839 275.428 427.079 276.498 422.154H297.356C296.092 432.182 292.3 439.972 285.979 445.524C279.658 450.986 270.518 453.716 258.557 453.716ZM337.34 358.492H359.219L394.664 452.508H372.346L365.491 433.839H330.484L323.483 452.508H301.895L337.34 358.492ZM359.656 417.722L347.987 382.399L336.173 417.722H359.656ZM406.973 358.492H444.46C451.169 358.492 457.004 359.209 461.963 360.641C466.923 362.074 471.007 364.133 474.216 366.819C477.522 369.416 480.002 372.55 481.655 376.221C483.308 379.802 484.134 383.787 484.134 388.174C484.134 394.352 482.578 399.725 479.467 404.291C476.452 408.858 471.833 412.35 465.61 414.767L487.052 452.508H464.297L445.481 418.125H427.832V452.508H406.973V358.492ZM444.46 402.008C451.169 402.008 455.983 400.799 458.9 398.382C461.817 395.964 463.276 392.562 463.276 388.174C463.276 383.876 461.817 380.519 458.9 378.101C455.983 375.684 451.169 374.475 444.46 374.475H427.832V402.008H444.46ZM520.399 374.475H491.081V358.492H570.43V374.475H541.111V452.508H520.399V374.475ZM583.602 358.492H649.97V374.475H604.461V396.098H644.573V412.215H604.461V436.525H649.97V452.508H583.602V358.492ZM667.502 358.492H688.361V436.525H733.432V452.508H667.502V358.492Z" fill="white"/>
</g>
<path d="M468.599 15.2786C470.524 10.0439 477.926 10.0386 479.858 15.2706L600.516 341.921C601.963 345.839 599.064 350 594.887 350H354.099C349.926 350 347.028 345.846 348.468 341.929L468.599 15.2786Z" fill="white"/>
<defs>
<clipPath id="clip0_38_35">
<rect width="170" height="28" fill="white" transform="translate(488.5 469)"/>
</clipPath>
<clipPath id="clip1_38_35">
<rect width="120" height="28" fill="white" transform="translate(290.5 469)"/>
</clipPath>
<clipPath id="clip2_38_35">
<rect width="517" height="97" fill="white" transform="translate(216.5 357)"/>
</clipPath>
</defs>
</svg>
