<svg width="36" height="36" viewBox="0 0 36 36" fill="none" xmlns="http://www.w3.org/2000/svg">
<path d="M0 18C0 8.05887 8.05887 0 18 0V0C27.9411 0 36 8.05887 36 18V18C36 27.9411 27.9411 36 18 36V36C8.05887 36 0 27.9411 0 18V18Z" fill="#FFC700"/>
<path d="M17.994 28.8C15.0436 28.8 14.6958 28.7844 13.5445 28.7341C12.6466 28.7047 11.7604 28.5224 10.9239 28.1952C9.47671 27.6328 8.33234 26.4897 7.76968 25.0443C7.45462 24.206 7.28469 23.3204 7.26716 22.4252C7.2 21.2779 7.2 20.9018 7.2 17.9785C7.2 15.024 7.21559 14.6791 7.26716 13.5353C7.28507 12.6414 7.455 11.7569 7.76968 10.9198C8.33173 9.4725 9.47795 8.32836 10.9275 7.76768C11.7654 7.45175 12.6514 7.28162 13.5469 7.26468C14.6922 7.20001 15.0688 7.20001 17.994 7.20001C20.9683 7.20001 21.3102 7.21558 22.4435 7.26468C23.3413 7.28177 24.2296 7.45188 25.0701 7.76768C26.5192 8.329 27.6652 9.47292 28.2279 10.9198C28.5483 11.7691 28.7191 12.6674 28.7328 13.5749C28.8 14.7222 28.8 15.097 28.8 18.0192C28.8 20.9413 28.7832 21.3246 28.7328 22.4587C28.715 23.3547 28.5446 24.2412 28.2291 25.0803C27.665 26.5266 26.5189 27.6702 25.0701 28.2323C24.2308 28.5463 23.3444 28.716 22.4483 28.7341C21.303 28.8 20.9276 28.8 17.994 28.8ZM17.9532 9.09582C15.0197 9.09582 14.715 9.11019 13.5697 9.16169C12.886 9.17073 12.209 9.29671 11.568 9.53414C10.6214 9.89583 9.87238 10.6407 9.50632 11.5844C9.2667 12.2315 9.14053 12.915 9.13332 13.6048C9.06976 14.7653 9.06976 15.0695 9.06976 17.9785C9.06976 20.8527 9.08055 21.2012 9.13332 22.3545C9.14406 23.0374 9.27016 23.7135 9.50632 24.3545C9.87292 25.2976 10.6218 26.0419 11.568 26.4036C12.2086 26.6426 12.8859 26.7686 13.5697 26.7761C14.7306 26.8431 15.0364 26.8431 17.9532 26.8431C20.8952 26.8431 21.1998 26.8288 22.3356 26.7761C23.0197 26.7677 23.6972 26.6418 24.3385 26.4036C25.2793 26.0388 26.0235 25.2962 26.3893 24.3569C26.6285 23.7093 26.7546 23.0255 26.7623 22.3353H26.7755C26.8271 21.1904 26.8271 20.885 26.8271 17.9593C26.8271 15.0335 26.8139 14.7258 26.7623 13.582C26.7516 12.9 26.6255 12.2246 26.3893 11.5844C26.0243 10.6438 25.28 9.89976 24.3385 9.53414C23.6974 9.29551 23.0197 9.1695 22.3356 9.16169C21.1758 9.09582 20.8724 9.09582 17.9532 9.09582ZM17.994 23.5102C15.7512 23.5116 13.7285 22.1638 12.8691 20.0952C12.0097 18.0266 12.4829 15.6447 14.0681 14.0604C15.6533 12.4762 18.0382 12.0015 20.1105 12.8579C22.1829 13.7143 23.5344 15.7329 23.5349 17.9725C23.5316 21.0276 21.0536 23.5043 17.994 23.5102ZM17.994 14.3773C16.0069 14.3773 14.396 15.9858 14.396 17.9701C14.396 19.9543 16.0069 21.5629 17.994 21.5629C19.9811 21.5629 21.592 19.9543 21.592 17.9701C21.5874 15.9877 19.9792 14.3819 17.994 14.3773ZM23.7508 13.5234C23.0377 13.5207 22.4614 12.942 22.4627 12.23C22.464 11.5179 23.0425 10.9413 23.7556 10.9413C24.4687 10.9413 25.0472 11.5179 25.0485 12.23C25.0488 12.5735 24.9121 12.903 24.6686 13.1457C24.4251 13.3884 24.0948 13.5243 23.7508 13.5234Z" fill="#0F1D2A"/>
</svg>
