<svg width="205" height="205" viewBox="0 0 205 205" fill="none" xmlns="http://www.w3.org/2000/svg">
<path d="M179.375 22.4219H25.625C16.7798 22.4219 9.60938 29.5923 9.60938 38.4375V169.766C9.60938 178.611 16.7798 185.781 25.625 185.781H179.375C188.22 185.781 195.391 178.611 195.391 169.766V38.4375C195.391 29.5923 188.22 22.4219 179.375 22.4219Z" fill="#0F1D2A"/>
<path d="M195.391 38.4375V169.766C195.391 174.013 193.703 178.087 190.7 181.09C187.696 184.094 183.623 185.781 179.375 185.781H83.2812V22.4219H179.375C183.623 22.4219 187.696 24.1092 190.7 27.1127C193.703 30.1163 195.391 34.1899 195.391 38.4375Z" fill="#0F1D2A"/>
<path d="M195.391 96.0938H119.412C120.925 93.1161 121.715 89.8241 121.719 86.4844C121.624 81.1359 119.644 75.9926 116.128 71.9611C112.612 67.9295 107.786 65.2684 102.5 64.4469C101.095 64.189 99.6686 64.0604 98.2398 64.0625H93.9477C90.2504 64.0585 86.6014 64.9022 83.2812 66.5289V22.4219H70.4688V66.5289C67.1486 64.9022 63.4996 64.0585 59.8023 64.0625H55.5102C49.4265 63.9335 43.5396 66.2208 39.1389 70.4233C34.7383 74.6259 32.1824 80.4012 32.0312 86.4844C32.0349 89.8241 32.8249 93.1161 34.3375 96.0938H9.60938V108.906H61.5961C54.1969 115.697 46.0609 121.719 41.6406 121.719C39.9416 121.719 38.3121 122.394 37.1107 123.595C35.9093 124.796 35.2344 126.426 35.2344 128.125C35.2344 129.824 35.9093 131.454 37.1107 132.655C38.3121 133.856 39.9416 134.531 41.6406 134.531C50.7375 134.531 62.0766 125.979 70.4688 118.195V185.781H83.2812V118.195C91.6734 125.979 103.012 134.531 112.109 134.531C113.808 134.531 115.438 133.856 116.639 132.655C117.841 131.454 118.516 129.824 118.516 128.125C118.516 126.426 117.841 124.796 116.639 123.595C115.438 122.394 113.808 121.719 112.109 121.719C107.945 121.719 99.9375 116.081 92.1219 108.906H195.391V96.0938ZM70.4688 96.0938H55.5102C52.8259 96.2163 50.2014 95.2765 48.205 93.478C46.2086 91.6794 45.001 89.1668 44.8438 86.4844C45.001 83.8019 46.2086 81.2893 48.205 79.4908C50.2014 77.6922 52.8259 76.7525 55.5102 76.875H59.8023C62.4866 76.7525 65.1111 77.6922 67.1075 79.4908C69.1039 81.2893 70.3115 83.8019 70.4688 86.4844V96.0938ZM102.5 95.2609C101.148 95.8158 99.7008 96.0988 98.2398 96.0938H83.2812V86.4844C83.4385 83.8019 84.6461 81.2893 86.6425 79.4908C88.6389 77.6922 91.2634 76.7525 93.9477 76.875H98.2398C99.7008 76.8699 101.148 77.1529 102.5 77.7078C104.355 78.3083 105.972 79.4812 107.119 81.058C108.266 82.6349 108.884 84.5345 108.884 86.4844C108.884 88.4342 108.266 90.3339 107.119 91.9107C105.972 93.4875 104.355 94.6604 102.5 95.2609Z" fill="#FFC700"/>
<path d="M195.391 108.906H92.1219C99.9375 116.081 107.945 121.719 112.109 121.719C113.808 121.719 115.438 122.394 116.639 123.595C117.841 124.797 118.516 126.426 118.516 128.125C118.516 129.824 117.841 131.454 116.639 132.655C115.438 133.856 113.808 134.531 112.109 134.531C103.013 134.531 91.6734 125.979 83.2812 118.195V96.0938H98.2398C99.7008 96.0989 101.148 95.8159 102.5 95.261C104.355 94.6604 105.972 93.4876 107.119 91.9107C108.266 90.3339 108.884 88.4342 108.884 86.4844C108.884 84.5346 108.266 82.6349 107.119 81.0581C105.972 79.4812 104.355 78.3084 102.5 77.7078C101.148 77.1529 99.7008 76.8699 98.2398 76.875H93.9477C91.2634 76.7525 88.6389 77.6923 86.6425 79.4908C84.6461 81.2894 83.4385 83.8019 83.2812 86.4844V66.5289C86.6014 64.9023 90.2504 64.0585 93.9477 64.0625H98.2398C99.6686 64.0604 101.095 64.1891 102.5 64.4469C107.786 65.2685 112.612 67.9295 116.128 71.9611C119.644 75.9927 121.624 81.1359 121.719 86.4844C121.715 89.8242 120.925 93.1162 119.412 96.0938H195.391V108.906Z" fill="#FFC700"/>
</svg>
