<svg width="36" height="36" viewBox="0 0 36 36" fill="none" xmlns="http://www.w3.org/2000/svg">
<path d="M18 36C27.9411 36 36 27.9411 36 18C36 8.05887 27.9411 0 18 0C8.05887 0 0 8.05887 0 18C0 27.9411 8.05887 36 18 36Z" fill="#FFC700"/>
<path d="M26.8254 22.6038C26.8254 22.529 26.7507 22.529 26.7507 22.4543C26.4518 21.8565 25.7793 21.1093 24.8827 20.2874C24.4344 19.9138 24.2102 19.6149 24.0608 19.4655C23.8366 19.1666 23.8366 18.9424 23.9113 18.6435C23.9861 18.4194 24.2849 18.0458 24.808 17.3732C25.1069 16.9996 25.2563 16.7755 25.4804 16.5514C26.6012 15.0569 27.1243 14.0855 26.9748 13.6372L26.9001 13.5625C26.8254 13.4878 26.7507 13.4131 26.6012 13.4131C26.4518 13.3384 26.2276 13.3384 26.0035 13.4131H23.1641C23.0894 13.4131 23.0894 13.4131 22.9399 13.4131C22.8652 13.4131 22.7905 13.4131 22.7905 13.4131H22.7158H22.641L22.5663 13.4878C22.4916 13.5625 22.4916 13.5625 22.4916 13.6372C22.1927 14.4592 21.8192 15.1317 21.4456 15.8789C21.2214 16.2525 20.9972 16.6261 20.7731 16.9249C20.5489 17.2238 20.3994 17.448 20.25 17.5974C20.1005 17.7469 19.9511 17.8216 19.8764 17.971C19.8016 18.0458 19.6522 18.1205 19.6522 18.0458C19.5775 18.0458 19.5028 18.0458 19.5028 17.971C19.428 17.8963 19.3533 17.8216 19.2786 17.7469C19.2039 17.6721 19.2039 17.5227 19.1291 17.3732C19.1291 17.2238 19.1291 17.0744 19.1291 16.9996C19.1291 16.9249 19.1291 16.7008 19.1291 16.5514C19.1291 16.3272 19.1291 16.1778 19.1291 16.1031C19.1291 15.8789 19.1291 15.58 19.1291 15.2811C19.1291 14.9822 19.1291 14.758 19.1291 14.6086C19.1291 14.4592 19.1291 14.235 19.1291 14.0855C19.1291 13.8614 19.1291 13.7119 19.1291 13.6372C19.1291 13.5625 19.0544 13.4131 19.0544 13.3384C18.9797 13.2637 18.905 13.189 18.8303 13.1142C18.7556 13.0395 18.6062 13.0395 18.5315 12.9648C18.1579 12.8901 17.7095 12.8154 17.1865 12.8154C15.9909 12.8154 15.169 12.8901 14.8701 13.0395C14.7207 13.1143 14.5713 13.189 14.4965 13.3384C14.3471 13.4878 14.3471 13.5625 14.4218 13.5625C14.7954 13.6372 15.0943 13.7866 15.2438 14.0108L15.3185 14.1603C15.3932 14.235 15.3932 14.3844 15.4679 14.6086C15.5426 14.8328 15.5426 15.0569 15.5426 15.3558C15.5426 15.8042 15.5426 16.2525 15.5426 16.5514C15.5426 16.9249 15.4679 17.1491 15.4679 17.3732C15.4679 17.5974 15.3932 17.7469 15.3185 17.8216C15.2438 17.971 15.2438 18.0458 15.169 18.0458C15.169 18.0458 15.169 18.1205 15.0943 18.1205C15.0196 18.1205 14.9449 18.1952 14.7954 18.1952C14.7207 18.1952 14.5713 18.1205 14.4965 18.0458C14.3471 17.971 14.1976 17.8216 14.1229 17.6721C13.9735 17.5227 13.824 17.2985 13.6746 16.9996C13.5251 16.7008 13.301 16.402 13.1515 15.9536L13.0021 15.6547C12.9274 15.5053 12.7779 15.2064 12.6285 14.8328C12.479 14.4592 12.3296 14.1603 12.1802 13.7867C12.1055 13.6372 12.0308 13.5625 11.9561 13.4878H11.8813C11.8813 13.4878 11.8066 13.4131 11.7319 13.4131C11.6572 13.4131 11.5824 13.3384 11.5077 13.3384H8.81774C8.51886 13.3384 8.36942 13.4131 8.2947 13.4878L8.21997 13.5625C8.21997 13.5625 8.21997 13.6372 8.21997 13.7119C8.21997 13.7867 8.21998 13.8614 8.2947 14.0108C8.6683 14.9075 9.11664 15.8042 9.56493 16.7008C10.0133 17.5227 10.4616 18.2699 10.7605 18.793C11.1341 19.3161 11.433 19.8391 11.8066 20.2874C12.1802 20.7357 12.4043 21.0346 12.479 21.184C12.6285 21.3335 12.7032 21.4082 12.7779 21.4829L13.0021 21.7071C13.1515 21.8565 13.3757 22.0807 13.6746 22.3049C13.9735 22.529 14.3471 22.7532 14.7207 22.9774C15.0943 23.2015 15.5426 23.3509 15.9909 23.5003C16.514 23.6498 16.9623 23.7245 17.4106 23.6498H18.5315C18.7556 23.6498 18.905 23.5751 19.0544 23.4256L19.1291 23.3509C19.1291 23.2762 19.2039 23.2762 19.2039 23.2015C19.2039 23.1268 19.2039 23.0521 19.2039 22.9027C19.2039 22.6038 19.2039 22.3796 19.2786 22.1554C19.3533 21.9313 19.3533 21.7818 19.4281 21.6324C19.5028 21.4829 19.5775 21.4082 19.6522 21.3335C19.7269 21.2587 19.8017 21.184 19.8017 21.184H19.8764C20.0258 21.1093 20.25 21.184 20.3994 21.3335C20.6236 21.4829 20.8478 21.7071 20.9972 21.9313C21.1467 22.1554 21.3708 22.3796 21.6697 22.6785C21.9686 22.9774 22.1927 23.2015 22.3421 23.2762L22.5663 23.4256C22.7157 23.5003 22.8652 23.5751 23.0894 23.6498C23.3135 23.7245 23.463 23.7245 23.6124 23.7245L26.1529 23.6498C26.3771 23.6498 26.6012 23.5751 26.7507 23.5003C26.9001 23.4256 26.9748 23.3509 26.9748 23.2015C26.9748 23.1268 26.9748 22.9774 26.9748 22.9027C26.8254 22.7532 26.8254 22.6785 26.8254 22.6038Z" fill="#0F1D2A"/>
</svg>
